<svg width="128" height="128" viewBox="0 0 32 32" fill="none" xmlns="http://www.w3.org/2000/svg">
<path d="M20.1664 24.6912C20.9472 24.8896 21.28 24.224 21.4272 23.5584C22.3872 19.2 23.3408 14.848 24.3008 10.4896C24.4032 10.0352 24.2944 9.6512 23.9424 9.3504C23.5968 9.056 23.2064 9.024 22.784 9.1776C17.2416 11.2704 11.7056 13.3632 6.1632 15.456C5.728 15.6224 5.5168 15.8848 5.5232 16.256C5.5296 16.6272 5.7472 16.8832 6.1888 17.0368C7.2 17.3888 8.2112 17.7152 9.216 18.0928C9.9584 18.368 10.6176 18.2784 11.2832 17.8496C13.8304 16.2176 16.3904 14.6048 18.944 12.9856C19.136 12.864 19.3472 12.6528 19.552 12.928C19.7376 13.1776 19.5008 13.3312 19.3408 13.4848C17.4592 15.296 15.5712 17.1008 13.6896 18.9184C13.1968 19.392 13.2288 19.8912 13.76 20.2816C15.6416 21.6512 19.3856 24.4928 20.1664 24.6912Z" fill="#FFFFFF"/>
</svg>